<?xml version="1.0" encoding="iso-8859-1"?>
<!-- Generator: Adobe Illustrator 19.0.0, SVG Export Plug-In . SVG Version: 6.00 Build 0)  -->
<svg version="1.1" id="Layer_1" xmlns="http://www.w3.org/2000/svg" xmlns:xlink="http://www.w3.org/1999/xlink" x="0px" y="0px"
	 viewBox="0 0 512 512" style="enable-background:new 0 0 512 512;" xml:space="preserve">
<g>
	<g>
		<g>
			<path d="M475.344,256.159C454.427,156.392,363.625,84.903,256,84.903c-11.046,0-21.855,0.933-32.49,2.393
				c-14.053-16.607-13.448-41.505,2.188-57.167c11.938-11.991,32.781-12.012,44.76,0c9.052,9.061,9.052,23.805,0,32.866
				c-4.167,4.171-4.167,10.928,0,15.099c4.167,4.171,10.917,4.171,15.083,0c17.375-17.382,17.375-45.681,0.01-63.064
				c-20.021-20.041-54.917-20.041-74.938,0c-20.682,20.72-23.848,52.184-10.008,76.491
				c-82.229,19.756-146.747,82.582-163.951,164.637C15.969,259.099,0,276.94,0,298.452s15.969,39.352,36.656,42.293
				C57.573,440.511,148.375,512,256,512s198.427-71.489,219.344-171.256c20.688-2.94,36.656-20.781,36.656-42.293
				S496.031,259.099,475.344,256.159z M469.531,319.817l-2.135-0.261c-5.469-0.626-10.542,3.389-11.448,8.884
				C440.375,422.431,356.281,490.645,256,490.645S71.625,422.431,56.052,328.44c-0.854-5.172-7.031-8.675-12.375-8.675
				c-0.344,0-0.677,0.01-1.01,0.042c-11.76,0-21.333-9.583-21.333-21.355s9.573-21.355,21.135-21.365l2.135,0.261
				c5.479,0.448,10.531-3.389,11.448-8.884c13.477-81.341,78.31-143.282,160.504-158.507c14.104,11.595,31.105,17.813,48.35,17.813
				c15.594,0,31.117-5.077,44.572-14.786c75.47,19.34,133.768,78.819,146.47,155.479c0.906,5.495,5.958,9.301,11.448,8.884
				l1.938-0.25c11.76,0,21.333,9.583,21.333,21.355S481.094,319.806,469.531,319.817z"/>
			<path d="M193.125,313.905c1.875,3.743,5.635,5.902,9.552,5.902c1.604,0,3.229-0.365,4.76-1.126
				c5.271-2.638,7.406-9.051,4.771-14.327c-0.552-1.116-13.938-27.257-41.542-27.257c-27.604,0-40.99,26.141-41.542,27.257
				c-2.625,5.255-0.5,11.605,4.729,14.264c5.188,2.648,11.635,0.573,14.323-4.651c0.083-0.156,8.177-15.516,22.49-15.516
				S193.073,313.811,193.125,313.905z"/>
			<path d="M341.333,277.097c-27.604,0-40.99,26.141-41.542,27.257c-2.625,5.255-0.5,11.605,4.729,14.264
				c5.198,2.648,11.625,0.573,14.323-4.651c0.083-0.156,8.177-15.516,22.49-15.516c14.313,0,22.406,15.359,22.458,15.453
				c1.875,3.743,5.635,5.902,9.552,5.902c1.604,0,3.229-0.365,4.76-1.126c5.271-2.638,7.406-9.051,4.771-14.327
				C382.323,303.238,368.938,277.097,341.333,277.097z"/>
			<path d="M337.635,386.613c-4.354-3.848-11.073-3.389-14.979,0.886c-0.167,0.177-16.813,17.726-66.656,17.726
				c-49.146,0-66.021-17.059-66.635-17.705c-3.823-4.359-10.458-4.89-14.906-1.137c-4.51,3.806-5.073,10.542-1.281,15.046
				c2.177,2.576,22.927,25.15,82.823,25.15s80.646-22.575,82.823-25.15C342.563,396.988,342,390.451,337.635,386.613z"/>
		</g>
	</g>
</g>
<g>
</g>
<g>
</g>
<g>
</g>
<g>
</g>
<g>
</g>
<g>
</g>
<g>
</g>
<g>
</g>
<g>
</g>
<g>
</g>
<g>
</g>
<g>
</g>
<g>
</g>
<g>
</g>
<g>
</g>
</svg>
