<?xml version="1.0" encoding="utf-8"?>
<!-- Generator: Adobe Illustrator 24.1.0, SVG Export Plug-In . SVG Version: 6.00 Build 0)  -->
<svg version="1.1" id="Layer_1" xmlns="http://www.w3.org/2000/svg" xmlns:xlink="http://www.w3.org/1999/xlink" x="0px" y="0px"
	 viewBox="0 0 640 640" style="enable-background:new 0 0 640 640;" xml:space="preserve">
<style type="text/css">
	.st0{fill:#141516;}
	.st1{fill:#231F20;}
	.st2{fill:#050505;}
	.st3{fill:#231F20;stroke:#000000;stroke-miterlimit:10;}
	.st4{fill:none;stroke:#000000;stroke-width:12;stroke-miterlimit:10;}
</style>
<g>
	<g>
		<path class="st0" d="M401.05,436.3c-2.41,5.63-10.5,5.71-12.94,0.1c-0.02-0.02-0.02-0.06-0.04-0.1l-27.3-63.8l-35.71-32.68
			c-4.7,1.57-10.96,0-10.96,0s-40.96-10.56-13.45-50.26l2.95-30.35l-28.7,19l-3.2,38.03c-0.5,5.8-0.04,10.17-5.86,9.88
			c-5.78-0.29-10.25-5.1-10.25-10.79c0-0.31,0-0.62,0.04-0.93l3.65-42.87c0.39-4.46,2.85-8.5,6.66-10.91l38.29-24.06
			c6.64-4.15,15.06-4.25,21.77-0.21c5.16,2.06,9.43,5.59,12.42,10.01c2.99,4.4,4.68,9.68,4.68,15.25v0.04c0,2.87-1.26,5.57-3.4,7.47
			c-4.19,3.75-10.3,12.73-6.58,32c2.52,13.06,9.97,24.41,9.97,24.41l26.64,26.95c3.57,3.61,6.35,7.92,8.15,12.65l23.38,61.42
			C402.5,429.84,402.33,433.31,401.05,436.3z"/>
		<circle class="st0" cx="326.11" cy="201.22" r="25.5"/>
		<path class="st0" d="M363.85,298.79c4.21,2.91,4.16,9.29-0.09,12.15c-3.05,2.05-7.13,2.53-10.78,0.68l-16.48-8.31
			c-4.78-20.85,1.78-21.9,1.78-21.9l25.51,17.33C363.81,298.76,363.83,298.77,363.85,298.79z"/>
		<path class="st0" d="M313.1,344.32l-25.15,34.27l-31.07,53.31c-2.68,4.64-9.31,6.23-14.3,3.43c-3.05-1.71-4.73-4.64-4.7-7.63
			c0.02-1.32,0.39-2.68,1.13-3.94l29.32-51.54v-0.02l20.55-46.78c0,0,1.07,1.98,3.45,4.73c3.1,3.63,8.46,8.64,16.59,12.44
			C310.25,343.19,311.65,343.78,313.1,344.32z"/>
	</g>
	<g>
		<polygon class="st0" points="192.94,412.79 220.81,412.79 202.86,464.28 160.82,464.28 		"/>
		<polygon class="st0" points="304.88,412.79 333.23,412.79 341.73,464.28 298.27,464.28 		"/>
		<polygon class="st0" points="417.78,412.79 444.7,412.79 479.18,464.28 435.25,464.28 		"/>
	</g>
</g>
</svg>
