<?xml version="1.0" encoding="utf-8"?>
<!-- Generator: Adobe Illustrator 24.1.0, SVG Export Plug-In . SVG Version: 6.00 Build 0)  -->
<svg version="1.1" id="Layer_1" xmlns="http://www.w3.org/2000/svg" xmlns:xlink="http://www.w3.org/1999/xlink" x="0px" y="0px"
	 viewBox="0 0 640 640" style="enable-background:new 0 0 640 640;" xml:space="preserve">
<style type="text/css">
	.st0{fill:#141516;}
	.st1{fill:#231F20;}
	.st2{fill:#050505;}
	.st3{fill:#231F20;stroke:#000000;stroke-miterlimit:10;}
	.st4{fill:none;stroke:#000000;stroke-width:12;stroke-miterlimit:10;}
</style>
<g>
	<g>
		<path class="st0" d="M390.29,434.64c-1.38,0.47-2.79,0.7-4.19,0.7c-5.08,0-9.88-2.99-11.97-7.9l-27.3-63.82l-32.04-29.32
			l0.04,0.16c0,0-35.41-9.14-18.26-42.34l4.06-41.78l-28.7,19l-3.2,38.03c-0.5,5.8-5.51,10.17-11.33,9.88
			c-5.8-0.29-10.27-5.1-10.27-10.81c0-0.31,0.02-0.6,0.04-0.91l3.67-42.87c0.39-4.46,2.83-8.52,6.66-10.91l49.09-30.85l14.03,5.61
			c11.78,4.72,19.5,16.13,19.5,28.82c-5.38,8.89-7.99,18.8-7.99,28.68c0,13.45,4.87,26.8,14.38,37.28l20.26,22.33
			c3.57,3.61,6.35,7.92,8.15,12.65l23.38,61.42C400.91,424.57,397.28,432.27,390.29,434.64z"/>
		<path class="st0" d="M312.28,337.6l-45.67,84.74c-3.9,7.23-13.25,9.43-19.96,4.69c-3.75-2.65-5.79-6.88-5.79-11.2
			c0-2.26,0.56-4.55,1.73-6.65l48.87-87.76l0.01,0.01C291.57,321.73,294.74,331.71,312.28,337.6z"/>
		<path class="st0" d="M339.64,270.97c0,0-6.57,6.53-1.78,27.38l16.48,8.31c6.46,3.26,14.22-0.72,15.35-7.86v0
			c0.65-4.08-1.12-8.17-4.54-10.49L339.64,270.97z"/>
		<circle class="st0" cx="328.94" cy="195.62" r="22.18"/>
	</g>
	<g>
		<polygon class="st0" points="192.94,415.07 220.81,415.07 202.86,466.56 160.82,466.56 		"/>
		<polygon class="st0" points="304.88,415.07 333.23,415.07 341.73,466.56 298.27,466.56 		"/>
		<polygon class="st0" points="417.78,415.07 444.7,415.07 479.18,466.56 435.25,466.56 		"/>
	</g>
</g>
</svg>
