<?xml version="1.0" encoding="utf-8"?>
<!-- Generator: Adobe Illustrator 24.1.0, SVG Export Plug-In . SVG Version: 6.00 Build 0)  -->
<svg version="1.1" id="Layer_1" xmlns="http://www.w3.org/2000/svg" xmlns:xlink="http://www.w3.org/1999/xlink" x="0px" y="0px"
	 viewBox="0 0 640 640" style="enable-background:new 0 0 640 640;" xml:space="preserve">
<style type="text/css">
	.st0{fill:#141516;}
	.st1{fill:#231F20;}
	.st2{fill:#050505;}
	.st3{fill:#231F20;stroke:#000000;stroke-miterlimit:10;}
	.st4{fill:none;stroke:#000000;stroke-width:12;stroke-miterlimit:10;}
</style>
<g>
	<g>
		<path class="st0" d="M387.16,437.66c-1.4,0.47-2.79,0.7-4.19,0.7c-5.08,0-9.88-3.01-11.97-7.92l-27.3-63.82l-35.7-32.66
			c0,0-40.96-10.56-13.45-50.26v-0.02l2.95-30.33l-28.7,19l-3.2,38.01c-0.5,5.82-5.51,10.19-11.33,9.9
			c-5.8-0.31-10.27-5.1-10.27-10.79c0-0.31,0.02-0.62,0.04-0.93l3.67-42.87c0.39-4.46,2.85-8.52,6.66-10.91l49.09-30.85l16.44,6.58
			c10.32,4.13,17.1,14.13,17.1,25.27v0.04c0,2.87-1.26,5.57-3.4,7.47c-4.19,3.73-10.3,12.73-6.58,32
			c2.52,13.06,6.48,20.16,9.97,24.04v0.37l26.64,26.95c3.57,3.61,6.35,7.92,8.15,12.65l23.38,61.42
			C397.77,427.59,394.15,435.3,387.16,437.66z"/>
		<path class="st0" d="M307.1,336.4l-35.19,87.03c-3.01,7.43-11.38,10.15-17.88,5.8c-3.95-2.65-6.2-7.27-6.2-11.98
			c0-1.88,0.36-3.78,1.11-5.57l37.22-88.61C286.16,323.07,289.48,332.62,307.1,336.4z"/>
		<circle class="st0" cx="320" cy="195.91" r="25.5"/>
		<path class="st0" d="M332.17,270.07c0,0-6.57,6.53-1.78,27.38l16.48,8.31c6.46,3.26,14.22-0.72,15.35-7.86v0
			c0.65-4.08-1.12-8.17-4.54-10.49L332.17,270.07z"/>
	</g>
	<g>
		<polygon class="st0" points="192.94,418.1 220.81,418.1 202.86,469.59 160.82,469.59 		"/>
		<polygon class="st0" points="304.88,418.1 333.23,418.1 341.73,469.59 298.27,469.59 		"/>
		<polygon class="st0" points="417.78,418.1 444.7,418.1 479.18,469.59 435.25,469.59 		"/>
	</g>
</g>
</svg>
