<?xml version="1.0" encoding="utf-8"?>
<!-- Generator: Adobe Illustrator 24.1.0, SVG Export Plug-In . SVG Version: 6.00 Build 0)  -->
<svg version="1.1" id="Layer_1" xmlns="http://www.w3.org/2000/svg" xmlns:xlink="http://www.w3.org/1999/xlink" x="0px" y="0px"
	 viewBox="0 0 640 640" style="enable-background:new 0 0 640 640;" xml:space="preserve">
<style type="text/css">
	.st0{fill:#141516;}
	.st1{fill:#231F20;}
	.st2{fill:#050505;}
	.st3{fill:#231F20;stroke:#000000;stroke-miterlimit:10;}
	.st4{fill:none;stroke:#000000;stroke-width:12;stroke-miterlimit:10;}
</style>
<g>
	<g>
		<circle class="st0" cx="321.26" cy="198.64" r="25.5"/>
		<path class="st0" d="M295.83,287.14c-0.17,0.21-0.5,0.62-0.97,1.22c0.29-0.45,0.6-0.91,0.93-1.38L295.83,287.14z"/>
		<path class="st0" d="M309.22,337.18v0.04c-0.06,0-0.17-0.04-0.39-0.1C308.94,337.14,309.08,337.16,309.22,337.18z"/>
		<path class="st0" d="M359,296.21c4.21,2.91,4.16,9.29-0.09,12.15c-3.05,2.05-7.13,2.53-10.78,0.68l-16.48-8.31
			c-4.78-20.85,1.78-21.9,1.78-21.9l25.51,17.33C358.96,296.18,358.98,296.19,359,296.21z"/>
		<path class="st0" d="M396.21,433.72c-2.41,5.63-10.52,5.71-12.96,0.1c0-0.02-0.02-0.06-0.04-0.1l-27.3-63.8l-43.99-32.68h-2.21
			c-0.17-0.02-0.33-0.04-0.49-0.06c-0.14-0.02-0.27-0.04-0.39-0.06c-43.64-5.9-19.93-40.89-14.07-48.63c0.04-0.04,0.08-0.1,0.1-0.14
			c0.47-0.6,0.8-1.01,0.97-1.22c0-0.02,0.02-0.04,0.02-0.04l-0.06-0.12l2.95-30.35l-28.68,19l-3.22,38.03
			c-0.5,5.8-0.04,10.17-5.84,9.88c-5.8-0.29-10.27-5.1-10.27-10.79c0-0.31,0.02-0.62,0.04-0.93l3.67-42.87
			c0.37-4.46,2.83-8.5,6.64-10.91l38.31-24.06c5.01-3.14,11.04-3.96,16.57-2.45c0,0,0.06,0.02,0.19,0.06
			c3.12,0.83,43.02,12.19,25.38,31.46c-1.57,1.73-3.4,3.2-5.38,4.46c-1.44,0.91-3.57,2.45-5.57,4.44
			c-2.85,5.18-4.85,13.51-2.33,26.58c2.52,13.06,9.99,24.41,9.99,24.41l26.62,26.95c2.81,2.83,5.12,6.11,6.85,9.68l0.02,0.02
			c0.47,0.95,0.89,1.94,1.28,2.95l23.38,61.42C397.64,427.26,397.49,430.73,396.21,433.72z"/>
		<path class="st0" d="M311.14,341.74l-24.9,38.73l-25.34,52.33c-2.19,4.54-8.29,6.5-13.2,4.23c-2.97-1.38-4.77-4-4.95-6.81
			c-0.08-1.24,0.16-2.54,0.78-3.78l23.83-50.51v-0.02l13.53-46.94l0.02-0.04l0.39-1.36l0.02,0.02c0.02,0.02,0.06,0.06,0.14,0.14
			c0.04,0.04,0.08,0.08,0.14,0.14c0.8,0.82,3.28,3.22,7.06,5.98c0.06,0.04,0.1,0.08,0.16,0.12
			C294.12,337.84,301.9,339.88,311.14,341.74z"/>
	</g>
	<g>
		<polygon class="st0" points="192.94,415.37 220.81,415.37 202.86,466.86 160.82,466.86 		"/>
		<polygon class="st0" points="304.88,415.37 333.23,415.37 341.73,466.86 298.27,466.86 		"/>
		<polygon class="st0" points="417.78,415.37 444.7,415.37 479.18,466.86 435.25,466.86 		"/>
	</g>
</g>
</svg>
