<?xml version="1.0" encoding="utf-8"?>
<!-- Generator: Adobe Illustrator 24.1.0, SVG Export Plug-In . SVG Version: 6.00 Build 0)  -->
<svg version="1.1" id="Layer_1" xmlns="http://www.w3.org/2000/svg" xmlns:xlink="http://www.w3.org/1999/xlink" x="0px" y="0px"
	 viewBox="0 0 640 640" style="enable-background:new 0 0 640 640;" xml:space="preserve">
<style type="text/css">
	.st0{fill:#141516;}
	.st1{fill:#231F20;}
	.st2{fill:#050505;}
	.st3{fill:#231F20;stroke:#000000;stroke-miterlimit:10;}
	.st4{fill:none;stroke:#000000;stroke-width:12;stroke-miterlimit:10;}
</style>
<g>
	<g>
		<g>
			<path class="st0" d="M390.28,428.68c-1.38,0.47-2.79,0.7-4.19,0.7c-5.08,0-9.86-2.99-11.95-7.9l-27.32-63.82l-32.04-29.34
				l0.04,0.17c0,0-35.43-9.14-18.24-42.38l4.04-41.74l-28.68,19l-3.22,38.03c-0.49,5.8-5.51,10.17-11.33,9.88
				c-5.8-0.29-10.25-5.08-10.25-10.77c0-0.33,0.02-0.64,0.04-0.95l3.65-42.87c0.39-4.46,2.85-8.52,6.66-10.91l49.11-30.85
				l14.03,5.61c11.78,4.72,19.5,16.13,19.5,28.82l-15.08,44.53l41.7,43.76c3.57,3.61,6.35,7.92,8.15,12.65l23.38,61.42
				C400.9,418.61,397.27,426.32,390.28,428.68z"/>
			<path class="st0" d="M312.28,331.65l-45.67,84.74c-3.9,7.23-13.25,9.43-19.96,4.69c-3.75-2.65-5.79-6.88-5.79-11.2
				c0-2.26,0.56-4.55,1.73-6.65l48.87-87.76l0.01,0.01C291.57,315.78,294.74,325.76,312.28,331.65z"/>
			<path class="st0" d="M377.12,288.69c0,1.69-0.37,3.4-1.13,5.01c-3.15,6.63-11.56,8.74-17.47,4.38l-16.6-12.24l-5.77-3.9
				l-2.5-1.89l8.28-23.96l30.61,23.3C375.49,281.66,377.12,285.13,377.12,288.69z"/>
		</g>
		<circle class="st0" cx="328.94" cy="189.67" r="22.18"/>
	</g>
	<g>
		<polygon class="st0" points="192.94,421.02 220.81,421.02 202.86,472.51 160.82,472.51 		"/>
		<polygon class="st0" points="304.88,421.02 333.23,421.02 341.73,472.51 298.27,472.51 		"/>
		<polygon class="st0" points="417.78,421.02 444.7,421.02 479.18,472.51 435.25,472.51 		"/>
	</g>
</g>
</svg>
