<?xml version="1.0" encoding="utf-8"?>
<!-- Generator: Adobe Illustrator 24.1.0, SVG Export Plug-In . SVG Version: 6.00 Build 0)  -->
<svg version="1.1" id="Layer_1" xmlns="http://www.w3.org/2000/svg" xmlns:xlink="http://www.w3.org/1999/xlink" x="0px" y="0px"
	 viewBox="0 0 640 640" style="enable-background:new 0 0 640 640;" xml:space="preserve">
<style type="text/css">
	.st0{fill:#141516;}
	.st1{fill:#231F20;}
	.st2{fill:#050505;}
	.st3{fill:#231F20;stroke:#000000;stroke-miterlimit:10;}
	.st4{fill:none;stroke:#000000;stroke-width:12;stroke-miterlimit:10;}
</style>
<g>
	<g>
		<path class="st0" d="M307.04,220.24l14.03,5.61c11.78,4.71,19.51,16.12,19.51,28.81V316l26.63,26.94
			c3.57,3.61,6.34,7.92,8.15,12.67l23.38,61.4c2.63,6.9-1,14.6-8,16.97h0c-6.44,2.18-13.48-0.96-16.15-7.21l-27.31-63.82
			l-35.7-32.66c-10.6-9.7-16.02-23.82-14.63-38.12l4.13-42.5l-28.69,19l-3.22,38.02c-0.49,5.81-5.51,10.19-11.33,9.88h0
			c-6.1-0.32-10.73-5.63-10.21-11.72l3.66-42.86c0.38-4.48,2.84-8.52,6.65-10.91L307.04,220.24z"/>
		<path class="st0" d="M298.84,326.43l19.38,17.89l-52.65,80.58c-4.5,6.88-14,8.28-20.29,2.99h0c-5.35-4.51-6.45-12.32-2.54-18.13
			L298.84,326.43z"/>
		<path class="st0" d="M343.85,269.45v29.75l16.6,12.24c5.91,4.36,14.32,2.25,17.47-4.38v0c2.37-4.99,0.92-10.96-3.47-14.3
			L343.85,269.45z"/>
		<circle class="st0" cx="323.59" cy="194.97" r="18.51"/>
	</g>
	<g>
		<polygon class="st0" points="192.94,412.06 220.81,412.06 202.86,463.54 160.82,463.54 		"/>
		<polygon class="st0" points="304.88,412.06 333.23,412.06 341.73,463.54 298.27,463.54 		"/>
		<polygon class="st0" points="417.78,412.06 444.7,412.06 479.18,463.54 435.25,463.54 		"/>
	</g>
</g>
</svg>
